<?xml version="1.0" encoding="UTF-8"?>
<svg width="36px" height="36px" viewBox="0 0 36 36" version="1.1" xmlns="http://www.w3.org/2000/svg" xmlns:xlink="http://www.w3.org/1999/xlink">
    <title>Feed icon</title>
    <g id="Original" stroke="none" stroke-width="1" fill="none" fill-rule="evenodd">
        <g id="Feeds" transform="translate(-346.000000, -2073.000000)">
            <g id="YouTube-/-Video" transform="translate(16.000000, 2061.000000)">
                <g id="Header" transform="translate(16.000000, 12.000000)">
                    <g id="Feed-icon" transform="translate(314.000000, 0.000000)">
                        <circle id="Bounds" cx="18" cy="18" r="18"></circle>
                        <g id="Logo" transform="translate(5.000000, 9.000000)" fill-rule="nonzero">
                            <path d="M25.3872611,2.89808917 C25.089172,1.78853503 24.211465,0.910828025 23.1019108,0.612738854 C21.0980892,0.0662420382 13.033121,0.0662420382 13.033121,0.0662420382 C13.033121,0.0662420382 4.96815287,0.0828025478 2.96433121,0.629299363 C1.85477707,0.927388535 0.977070064,1.80509554 0.678980892,2.91464968 C0.149044586,4.91847134 0.149044586,9.10828025 0.149044586,9.10828025 C0.149044586,9.10828025 0.149044586,13.2980892 0.695541401,15.3184713 C0.993630573,16.4280255 1.87133758,17.3057325 2.98089172,17.6038217 C4.98471338,18.1503185 13.0496815,18.1503185 13.0496815,18.1503185 C13.0496815,18.1503185 21.1146497,18.1503185 23.1184713,17.6038217 C24.2280255,17.3057325 25.1057325,16.4280255 25.4038217,15.3184713 C25.9503185,13.3146497 25.9503185,9.10828025 25.9503185,9.10828025 C25.9503185,9.10828025 25.933758,4.91847134 25.3872611,2.89808917 Z" id="Path" fill="#FF0000"></path>
                            <polygon id="Path" fill="#FFFFFF" points="10.466242 12.9834395 17.1566879 9.10828025 10.466242 5.23312102"></polygon>
                        </g>
                    </g>
                </g>
            </g>
        </g>
    </g>
</svg>