<?xml version="1.0" encoding="UTF-8"?>
<svg width="36px" height="36px" viewBox="0 0 36 36" version="1.1" xmlns="http://www.w3.org/2000/svg" xmlns:xlink="http://www.w3.org/1999/xlink">
    <title>Feed icon</title>
    <g id="Original" stroke="none" stroke-width="1" fill="none" fill-rule="evenodd">
        <g id="Feeds" transform="translate(-346.000000, -1383.000000)">
            <g id="Dribbble-/-Multiple-Shots" transform="translate(16.000000, 1371.000000)">
                <g id="Header" transform="translate(16.000000, 12.000000)">
                    <g id="Feed-icon" transform="translate(314.000000, 0.000000)">
                        <circle id="Bounds" cx="18" cy="18" r="18"></circle>
                        <g id="Logo" transform="translate(5.000000, 5.000000)">
                            <circle id="Oval" fill="#EA4C89" fill-rule="nonzero" cx="13" cy="13" r="12.48"></circle>
                            <path d="M13,0 C5.82322,0 0,5.82322 0,13 C0,20.17678 5.82322,26 13,26 C20.162688,26 26,20.17678 26,13 C26,5.82322 20.162688,0 13,0 Z M21.58676,5.992402 C23.137738,7.88177 24.06833,10.292854 24.09654,12.901304 C23.72994,12.830792 20.063992,12.083526 16.36986,12.548796 C16.285256,12.365522 16.214744,12.168104 16.130166,11.970712 C15.904564,11.43493 15.650752,10.88503 15.396966,10.36334 C19.485908,8.699574 21.347066,6.302608 21.58676,5.992402 Z M13,1.9175702 C15.81996,1.9175702 18.400226,2.97505 20.36008,4.709328 C20.162688,4.991324 18.484804,7.2332 14.536886,8.713666 C12.718004,5.372016 10.70173,2.63666 10.39155,2.213666 C11.22342,2.0162688 12.097618,1.9175702 13,1.9175702 Z M8.27658,2.960958 C8.572668,3.355742 10.54664,6.105216 12.393706,9.376354 C7.20499,10.758124 2.622568,10.7299833 2.1290672,10.7299833 C2.848144,7.289594 5.174624,4.427332 8.27658,2.960958 Z M1.8893706,13.014092 C1.8893706,12.901304 1.8893706,12.788516 1.8893706,12.675702 C2.3687638,12.689794 7.75489,12.760306 13.296088,11.09654 C13.620386,11.716926 13.916474,12.351404 14.19847,12.985908 C14.057472,13.02821 13.902382,13.070512 13.761384,13.112788 C8.036886,14.95988 4.991324,20.007598 4.737538,20.430592 C2.97505,18.470712 1.8893706,15.862262 1.8893706,13.014092 Z M13,24.110632 C10.433852,24.110632 8.06507,23.236434 6.189794,21.77006 C6.387212,21.361184 8.64318,17.01843 14.90346,14.832974 C14.93167,14.818882 14.945762,14.818882 14.973972,14.804764 C16.539042,18.851404 17.173546,22.249448 17.342728,23.222342 C16.00326,23.800426 14.536886,24.110632 13,24.110632 Z M19.18982,22.207172 C19.077006,21.530366 18.48483,18.287412 17.032548,14.297192 C20.515196,13.747292 23.560732,14.649674 23.941424,14.77658 C23.462036,17.864418 21.685456,20.529288 19.18982,22.207172 Z" id="Shape" fill="#C32361"></path>
                        </g>
                    </g>
                </g>
            </g>
        </g>
    </g>
</svg>