<?xml version="1.0" encoding="UTF-8"?>
<svg width="36px" height="36px" viewBox="0 0 36 36" version="1.1" xmlns="http://www.w3.org/2000/svg" xmlns:xlink="http://www.w3.org/1999/xlink">
    <title>Feed icon</title>
    <g id="Original" stroke="none" stroke-width="1" fill="none" fill-rule="evenodd">
        <g id="iPhone-11-Pro-Max" transform="translate(-335.000000, -713.000000)">
            <g id="GitHub-/-Star" transform="translate(26.000000, 701.000000)">
                <g id="Content" transform="translate(-388.000000, -243.000000)">
                    <g id="Header" transform="translate(407.000000, 255.000000)">
                        <g id="Feed-icon" transform="translate(290.000000, 0.000000)">
                            <circle id="Bounds" cx="18" cy="18" r="18"></circle>
                            <path d="M18.0001076,5 C10.8212875,5 5,10.73783 5,17.8163618 C5,23.4790598 8.72492652,28.2832588 13.890267,29.9779721 C14.539971,30.0966126 14.7784972,29.6999415 14.7784972,29.3614233 C14.7784972,29.0558019 14.7664417,28.04619 14.7608445,26.9752416 C11.144202,27.7505437 10.3810474,25.4630522 10.3810474,25.4630522 C9.7896833,23.9816373 8.93761954,23.5877252 8.93761954,23.5877252 C7.75812047,22.7922606 9.02652867,22.8086028 9.02652867,22.8086028 C10.3319644,22.8988036 11.0193418,24.1293543 11.0193418,24.1293543 C12.1788201,26.0887272 14.0605506,25.5222664 14.8023929,25.1947845 C14.9190727,24.3666354 15.2559801,23.8008113 15.6277624,23.4809699 C12.7402608,23.1568839 9.70486442,22.0579202 9.70486442,17.1469659 C9.70486442,15.7476867 10.2127013,14.6043655 11.0443138,13.7068148 C10.9093355,13.3837899 10.4643593,12.0804419 11.1702505,10.3150537 C11.1702505,10.3150537 12.2619168,9.97059288 14.7462058,11.6288013 C15.7831919,11.3448281 16.8953095,11.202417 18.0001076,11.1975356 C19.1049058,11.202417 20.2178845,11.3448281 21.2568081,11.6288013 C23.7380832,9.97059288 24.8282426,10.3150537 24.8282426,10.3150537 C25.5358559,12.0804419 25.0906645,13.3837899 24.9556862,13.7068148 C25.7892362,14.6043655 26.2936286,15.7476867 26.2936286,17.1469659 C26.2936286,22.0695932 23.2524198,23.1534881 20.3575988,23.4707826 C20.8238874,23.8685149 21.2393707,24.6484862 21.2393707,25.8442301 C21.2393707,27.5588936 21.2243014,28.9390714 21.2243014,29.3614233 C21.2243014,29.7024883 21.4583068,30.1021308 22.1172676,29.9762742 C27.2798096,28.2796508 31,23.4771497 31,17.8163618 C31,10.73783 25.1795736,5 18.0001076,5" id="Logo" fill="#000000"></path>
                        </g>
                    </g>
                </g>
            </g>
        </g>
    </g>
</svg>