<?xml version="1.0" encoding="UTF-8"?>
<svg width="36px" height="36px" viewBox="0 0 36 36" version="1.1" xmlns="http://www.w3.org/2000/svg" xmlns:xlink="http://www.w3.org/1999/xlink">
    <title>Feed icon</title>
    <g id="Original" stroke="none" stroke-width="1" fill="none" fill-rule="evenodd">
        <g id="Two-column" transform="translate(-673.000000, -372.000000)">
            <g id="Content" transform="translate(320.000000, 0.000000)">
                <g id="Cards" transform="translate(52.000000, 154.000000)">
                    <g id="Header" transform="translate(25.000000, 218.000000)">
                        <g id="Feed-icon" transform="translate(276.000000, 0.000000)">
                            <circle id="Bounds" cx="18" cy="18" r="18"></circle>
                            <path d="M14.1672669,27 C23.9783914,27 29.3469388,19.3031496 29.3469388,12.6397638 C29.3469388,12.4232283 29.3469388,12.2066929 29.3365346,11.9901575 C30.3769508,11.2814961 31.2821128,10.3858268 32,9.37204724 C31.0428171,9.77559055 30.0128051,10.0413386 28.9307723,10.1692913 C30.0336134,9.5492126 30.8763505,8.55511811 31.2821128,7.37401575 C30.2521008,7.95472441 29.1076431,8.36811024 27.8903561,8.59448819 C26.9123649,7.61023622 25.5286114,7 23.9991997,7 C21.0548219,7 18.6618647,9.26377953 18.6618647,12.0492126 C18.6618647,12.4429134 18.7138856,12.8267717 18.7971188,13.2007874 C14.364946,12.9940945 10.4321729,10.976378 7.79991997,7.92519685 C7.34213685,8.67322835 7.08203281,9.53937008 7.08203281,10.4645669 C7.08203281,12.2165354 8.02881152,13.761811 9.45418167,14.6673228 C8.58023209,14.6377953 7.75830332,14.4114173 7.04041617,14.0374016 C7.04041617,14.0570866 7.04041617,14.0767717 7.04041617,14.1062992 C7.04041617,16.5472441 8.88195278,18.5944882 11.3165266,19.0570866 C10.8691477,19.1751969 10.4009604,19.234252 9.91196479,19.234252 C9.56862745,19.234252 9.23569428,19.2047244 8.91316527,19.1456693 C9.58943577,21.1535433 11.5662265,22.6102362 13.8967587,22.6496063 C12.0656263,24.007874 9.76630652,24.8149606 7.26930772,24.8149606 C6.84273709,24.8149606 6.41616647,24.7952756 6,24.746063 C8.35134054,26.1633858 11.1604642,27 14.1672669,27" id="Logo" fill="#1DA1F2" fill-rule="nonzero"></path>
                        </g>
                    </g>
                </g>
            </g>
        </g>
    </g>
</svg>