<?xml version="1.0" encoding="UTF-8"?>
<svg width="36px" height="36px" viewBox="0 0 36 36" version="1.1" xmlns="http://www.w3.org/2000/svg" xmlns:xlink="http://www.w3.org/1999/xlink">
    <title>Feed icon</title>
    <defs>
        <radialGradient cx="7.52559204%" cy="113.338219%" fx="7.52559204%" fy="113.338219%" r="123.164462%" id="radialGradient-1">
            <stop stop-color="#FFDD55" offset="0%"></stop>
            <stop stop-color="#FFDD55" offset="10%"></stop>
            <stop stop-color="#FF543E" offset="50%"></stop>
            <stop stop-color="#C837AB" offset="100%"></stop>
        </radialGradient>
    </defs>
    <g id="Original" stroke="none" stroke-width="1" fill="none" fill-rule="evenodd">
        <g id="iPhone-11-Pro-Max" transform="translate(-336.000000, -523.000000)">
            <g id="Instagram-/-Multiple-Photos" transform="translate(26.000000, 145.000000)">
                <g id="Header" transform="translate(25.000000, 378.000000)">
                    <g id="Feed-icon" transform="translate(285.000000, 0.000000)">
                        <circle id="Bounds" cx="18" cy="18" r="18"></circle>
                        <path d="M18.5011719,5 C15.1063449,5 14.6802988,5.01484375 13.3469515,5.07552083 C12.0162085,5.13645833 11.1078657,5.34713542 10.3130658,5.65625 C9.49092178,5.97552083 8.79351868,6.40260417 8.09871978,7.09765625 C7.40340004,7.79244792 6.97631225,8.48984375 6.65599642,9.31171875 C6.34609736,10.1067708 6.13515766,11.0153646 6.0752612,12.3455729 C6.01562516,13.6789062 6,14.1052083 6,17.5 C6,20.8947917 6.01510432,21.3195312 6.07552162,22.6528646 C6.13672017,23.9835937 6.34739945,24.8919271 6.65625684,25.6867187 C6.97579141,26.5088542 7.4028792,27.20625 8.09793852,27.9010417 C8.792477,28.5963542 9.4898801,29.0244792 10.3115032,29.34375 C11.106824,29.6528646 12.0154272,29.8635417 13.3459099,29.9244792 C14.6792571,29.9851562 15.1050428,30 18.4996094,30 C21.8946968,30 22.3194408,29.9851562 23.652788,29.9244792 C24.9835311,29.8635417 25.8929156,29.6528646 26.6882363,29.34375 C27.5101199,29.0244792 28.2064813,28.5963542 28.9010198,27.9010417 C29.5963395,27.20625 30.0234273,26.5088542 30.3437432,25.6869792 C30.651038,24.8919271 30.8619777,23.9833333 30.9244784,22.653125 C30.9843748,21.3197917 31,20.8947917 31,17.5 C31,14.1052083 30.9843748,13.6791667 30.9244784,12.3458333 C30.8619777,11.0151042 30.651038,10.1067708 30.3437432,9.31197917 C30.0234273,8.48984375 29.5963395,7.79244792 28.9010198,7.09765625 C28.2057001,6.40234375 27.5103803,5.97526042 26.6874551,5.65625 C25.8905718,5.34713542 24.9817081,5.13645833 23.6509651,5.07552083 C22.3176179,5.01484375 21.8931343,5 18.4972656,5 L18.5011719,5 Z M17.379806,7.25260417 C17.712622,7.25208333 18.08398,7.25260417 18.5011719,7.25260417 C21.8387067,7.25260417 22.2342837,7.26458333 23.5522662,7.32447917 C24.7710289,7.38020833 25.4324941,7.58385417 25.8731237,7.75494792 C26.4564631,7.98151042 26.8723528,8.25234375 27.309597,8.68984375 C27.7471015,9.12734375 28.0179377,9.54401042 28.2450234,10.1273437 C28.4161189,10.5674479 28.6200273,11.2289062 28.6754966,12.4476562 C28.7353931,13.7653646 28.748414,14.1611979 28.748414,17.4971354 C28.748414,20.8330729 28.7353931,21.2289062 28.6754966,22.5466146 C28.6197669,23.7653646 28.4161189,24.4268229 28.2450234,24.8669271 C28.0184585,25.4502604 27.7471015,25.865625 27.309597,26.3028646 C26.8720924,26.7403646 26.4567235,27.0111979 25.8731237,27.2377604 C25.4330149,27.4096354 24.7710289,27.6127604 23.5522662,27.6684896 C22.2345441,27.7283854 21.8387067,27.7414062 18.5011719,27.7414062 C15.1633767,27.7414062 14.7677997,27.7283854 13.4500776,27.6684896 C12.2313149,27.6122396 11.5698497,27.4085937 11.1289597,27.2375 C10.5456203,27.0109375 10.1289493,26.7401042 9.6914447,26.3026042 C9.25394015,25.8651042 8.98310399,25.4494792 8.75601829,24.8658854 C8.58492276,24.4257812 8.38101439,23.7643229 8.32554506,22.5455729 C8.2656486,21.2278646 8.25366931,20.8320312 8.25366931,17.4940104 C8.25366931,14.1559896 8.2656486,13.7622396 8.32554506,12.4445312 C8.3812748,11.2257812 8.58492276,10.5643229 8.75601829,10.1236979 C8.98258315,9.54036458 9.25394015,9.12369792 9.6914447,8.68619792 C10.1289493,8.24869792 10.5456203,7.97786458 11.1289597,7.75078125 C11.5695893,7.57890625 12.2313149,7.37578125 13.4500776,7.31979167 C14.6032146,7.26770833 15.0500943,7.25208333 17.379806,7.24947917 L17.379806,7.25260417 Z M25.1736372,9.328125 C24.3455036,9.328125 23.6736216,9.99921875 23.6736216,10.8276042 C23.6736216,11.6557292 24.3455036,12.3276042 25.1736372,12.3276042 C26.0017709,12.3276042 26.6736529,11.6557292 26.6736529,10.8276042 C26.6736529,9.99947917 26.0017709,9.32760417 25.1736372,9.32760417 L25.1736372,9.328125 Z M18.5011719,11.0807292 C14.9560829,11.0807292 12.0818342,13.9549479 12.0818342,17.5 C12.0818342,21.0450521 14.9560829,23.9179687 18.5011719,23.9179687 C22.0462609,23.9179687 24.9194679,21.0450521 24.9194679,17.5 C24.9194679,13.9549479 22.0460005,11.0807292 18.5009115,11.0807292 L18.5011719,11.0807292 Z M18.5011719,13.3333333 C20.8022375,13.3333333 22.667882,15.1986979 22.667882,17.5 C22.667882,19.8010417 20.8022375,21.6666667 18.5011719,21.6666667 C16.1998458,21.6666667 14.3344618,19.8010417 14.3344618,17.5 C14.3344618,15.1986979 16.1998458,13.3333333 18.5011719,13.3333333 Z" id="Logo" fill="url(#radialGradient-1)" fill-rule="nonzero"></path>
                    </g>
                </g>
            </g>
        </g>
    </g>
</svg>