<?xml version="1.0" encoding="UTF-8"?>
<svg width="36px" height="36px" viewBox="0 0 36 36" version="1.1" xmlns="http://www.w3.org/2000/svg" xmlns:xlink="http://www.w3.org/1999/xlink">
    <title>Feed icon</title>
    <g id="Original" stroke="none" stroke-width="1" fill="none" fill-rule="evenodd">
        <g id="Feeds" transform="translate(-346.000000, -2471.000000)">
            <g id="Reddit-/-Photo" transform="translate(16.000000, 2459.000000)">
                <g id="Header" transform="translate(16.000000, 12.000000)">
                    <g id="Feed-icon" transform="translate(314.000000, 0.000000)">
                        <circle id="Bounds" cx="18" cy="18" r="18"></circle>
                        <path d="M30.9995546,18.6738873 C30.9413293,17.1096671 29.6215561,15.8882236 28.0446211,15.9413298 C27.3459177,15.965469 26.6811789,16.2503116 26.1765598,16.7282678 C23.9542946,15.2219817 21.3438608,14.396421 18.6606454,14.3384869 L19.9270454,8.2795477 L24.1047099,9.15338675 C24.2211605,10.2203394 25.1818778,10.9927938 26.2541935,10.8769256 C27.3265092,10.7610575 28.1028464,9.80514515 27.9863958,8.7381925 C27.8699453,7.67123986 26.909228,6.89878545 25.8369123,7.01465361 C25.2206946,7.07741553 24.6675544,7.43467569 24.3618716,7.9657381 L19.5776937,7.01465361 C19.2526025,6.94223601 18.9275113,7.14500529 18.8547297,7.47329842 C18.8547297,7.47812626 18.8547297,7.47812626 18.8547297,7.4829541 L17.4136538,14.2226188 C14.6964736,14.2660693 12.0520751,15.0964578 9.80069721,16.6123996 C8.65559986,15.5406191 6.85061589,15.5937253 5.77344804,16.7379234 C4.69628019,17.8772937 4.74965338,19.6732502 5.89960284,20.7450307 C6.12279978,20.9526278 6.37996147,21.1312579 6.66623581,21.2567817 C6.64682738,21.5416243 6.64682738,21.8264668 6.66623581,22.1113094 C6.66623581,26.4611933 11.7609486,30 18.0444277,30 C24.3279068,30 29.4226196,26.4660211 29.4226196,22.1113094 C29.4420281,21.8264668 29.4420281,21.5416243 29.4226196,21.2567817 C30.4027453,20.7691699 31.018963,19.7649791 30.9995546,18.6738873 Z M11.4795264,20.6195068 C11.4795264,19.5477263 12.3577578,18.6738873 13.4349257,18.6738873 C14.5120935,18.6738873 15.390325,19.5477263 15.390325,20.6195068 C15.390325,21.6912873 14.5120935,22.5651264 13.4349257,22.5651264 C12.3529057,22.5554707 11.4795264,21.6912873 11.4795264,20.6195068 Z M20.5298787,20.6195068 C20.5298787,19.5477263 21.4081102,18.6738873 22.485278,18.6738873 C23.5624459,18.6738873 24.4406773,19.5477263 24.4406773,20.6195068 C24.4406773,21.6912873 23.5624459,22.5651264 22.485278,22.5651264 C21.4032581,22.5554707 20.5298787,21.6912873 20.5298787,20.6195068 Z M17.9959067,27.4557283 C16.2588522,27.5281459 14.5606146,26.9970835 13.1729119,25.9590979 C12.9885318,25.7370173 13.0224965,25.4038963 13.2456935,25.2204384 C13.4397778,25.0611196 13.7163479,25.0611196 13.9152843,25.2204384 C15.0894943,26.0749661 16.520866,26.5094717 17.9764982,26.4418819 C19.4321305,26.5191273 20.8683543,26.1039331 22.0571206,25.2590611 C22.2706133,25.051464 22.619965,25.0562918 22.8286057,25.2687168 C22.9676994,25.4103334 22.9644647,25.6404605 22.8189014,25.9590979 C21.4311987,26.9970835 19.7329611,27.5281459 17.9959067,27.4557283 Z" id="Logo" fill="#FF4500" fill-rule="nonzero"></path>
                    </g>
                </g>
            </g>
        </g>
    </g>
</svg>